<svg width="250" height="38" viewBox="0 0 250 38" fill="none" xmlns="http://www.w3.org/2000/svg">
<g filter="url(#filter0_d_22_62)">
<path d="M10.735 25.46C10.735 26.8367 9.39333 27.525 6.71 27.525C6.12667 27.525 5.77667 27.2333 5.66 26.65C5.56667 26.0433 5.52 25.2967 5.52 24.41C5.52 23.5233 5.57833 22.5783 5.695 21.575C5.835 20.5483 6.01 19.44 6.22 18.25C6.61667 15.9633 7.17667 13.5017 7.9 10.865C8.64667 8.205 9.38167 6.15167 10.105 4.705C8.635 4.79833 7.17667 5.06667 5.73 5.51C4.28333 5.93 3.25667 6.23333 2.65 6.42C2.04333 6.58333 1.54167 6.665 1.145 6.665C0.748333 6.665 0.55 6.53667 0.55 6.28C0.55 5.97667 0.783333 5.53333 1.25 4.95C1.71667 4.34333 2.38167 3.73667 3.245 3.13C5.43833 1.63666 7.87667 0.878332 10.56 0.854999L22.075 0.959999C22.705 0.959999 23.02 1.205 23.02 1.695C23.02 1.835 22.9267 2.09167 22.74 2.465C22.5533 2.815 22.39 3.2 22.25 3.62C21.9467 4.46 21.305 4.88 20.325 4.88C19.3683 4.88 17.07 4.81 13.43 4.67C13.3367 5.69667 13.15 7.015 12.87 8.625C12.59 10.2117 12.2867 11.95 11.96 13.84C11.1667 18.67 10.7583 22.5433 10.735 25.46ZM31.5165 15.24C31.5165 14.4 31.0149 13.98 30.0115 13.98C29.0315 13.98 28.0632 14.75 27.1065 16.29C26.1499 17.8067 25.5549 19.3583 25.3215 20.945C25.3682 21.4817 25.4149 22.0183 25.4615 22.555C25.5082 23.0917 25.5315 23.6167 25.5315 24.13C25.5315 25.3667 25.1232 26.2067 24.3065 26.65C23.9332 26.86 23.5715 27.0583 23.2215 27.245C22.8949 27.4317 22.5099 27.525 22.0665 27.525C21.6232 27.525 21.2265 27.2333 20.8765 26.65C20.5499 26.0433 20.3865 25.11 20.3865 23.85C20.3865 20.3267 20.6432 17.27 21.1565 14.68C21.9499 10.6667 23.5249 6.37333 25.8815 1.8C26.2082 1.17 26.6865 0.866665 27.3165 0.889998C27.9465 0.889998 28.4599 1.32166 28.8565 2.185C29.2532 3.04833 29.4399 3.77167 29.4165 4.355C29.4165 4.93833 29.3232 5.51 29.1365 6.07C28.9732 6.60666 28.7515 7.14333 28.4715 7.68C28.2149 8.19333 27.9115 8.73 27.5615 9.29C27.2349 9.82667 26.9082 10.41 26.5815 11.04L26.0565 13.56C26.9665 12.0433 28.1915 11.0283 29.7315 10.515C30.2915 10.3283 30.9099 10.235 31.5865 10.235C33.1732 10.235 34.3749 10.5967 35.1915 11.32C36.0082 12.02 36.4165 13.0233 36.4165 14.33C36.4165 15.6133 36.2415 16.92 35.8915 18.25C35.5649 19.58 35.3199 20.5367 35.1565 21.12C35.0165 21.68 34.9465 22.1467 34.9465 22.52C34.9465 22.8933 35.0749 23.08 35.3315 23.08C35.6815 23.08 36.1132 22.8583 36.6265 22.415C37.1399 21.9717 37.6532 21.4933 38.1665 20.98C38.6799 20.4433 39.1465 19.9533 39.5665 19.51C40.0099 19.0667 40.3132 18.845 40.4765 18.845C40.8032 18.845 40.9665 19.2417 40.9665 20.035C40.9665 21.6683 40.1615 23.2433 38.5515 24.76C35.8449 26.3467 34.1182 27.14 33.3715 27.14C33.3015 27.14 33.2549 27.1283 33.2315 27.105C31.3649 27.105 30.4315 25.6117 30.4315 22.625C30.4315 21.3417 30.5482 20.1633 30.7815 19.09C31.0382 18.0167 31.2249 17.235 31.3415 16.745C31.4582 16.255 31.5165 15.7533 31.5165 15.24ZM47.3622 23.185C49.1822 23.185 50.9439 22.4617 52.6472 21.015C53.2772 20.4783 53.7906 19.9883 54.1872 19.545C54.5839 19.0783 54.8872 18.845 55.0972 18.845C55.4239 18.845 55.5872 19.1717 55.5872 19.825C55.5872 20.4783 55.4122 21.2133 55.0622 22.03C54.7122 22.8233 54.1289 23.605 53.3122 24.375C51.3056 26.265 48.5522 27.21 45.0522 27.21C42.2756 27.21 40.3856 26.2067 39.3822 24.2C39.0322 23.5 38.8572 22.4967 38.8572 21.19C38.8572 19.8833 39.1139 18.53 39.6272 17.13C40.1406 15.7067 40.8172 14.4817 41.6572 13.455C42.5206 12.4283 43.5122 11.635 44.6322 11.075C45.7522 10.4917 46.9422 10.2 48.2022 10.2C49.4856 10.2 50.4656 10.515 51.1422 11.145C51.8422 11.775 52.1922 12.5917 52.1922 13.595C52.1922 14.5983 51.9356 15.4267 51.4222 16.08C50.9322 16.71 50.2906 17.2467 49.4972 17.69C48.7039 18.11 47.8172 18.495 46.8372 18.845C45.8806 19.1717 44.9356 19.545 44.0022 19.965V20.84C44.0256 21.68 44.3756 22.275 45.0522 22.625C45.7289 22.975 46.4989 23.1617 47.3622 23.185ZM46.7672 13.315C45.5539 13.315 44.7139 14.7267 44.2472 17.55C44.7372 17.2233 45.1922 16.9317 45.6122 16.675C46.0556 16.4183 46.4406 16.1733 46.7672 15.94C47.4672 15.4267 47.8289 14.8433 47.8522 14.19C47.8522 13.6067 47.4906 13.315 46.7672 13.315ZM132.862 9.56C132.862 7.512 133.769 5.848 135.582 4.568C137.395 3.288 139.817 2.648 142.846 2.648C144.659 2.648 146.249 2.86133 147.614 3.288C148.979 3.69333 150.025 4.25867 150.75 4.984C152.201 6.41333 152.926 8.056 152.926 9.912C152.926 11.768 152.179 13.3253 150.686 14.584C149.214 15.8213 147.326 16.44 145.022 16.44C144.766 16.44 144.382 16.4187 143.87 16.376L144.158 14.04C146.995 14.04 148.414 12.7067 148.414 10.04C148.414 8.80267 147.891 7.75733 146.846 6.904C145.758 6.008 144.137 5.56 141.982 5.56C139.827 5.56 138.121 6.11467 136.862 7.224C136.115 7.864 135.742 8.55733 135.742 9.304C135.742 10.712 136.585 11.512 138.27 11.704L137.886 14.072C136.414 14.008 135.209 13.5387 134.27 12.664C133.331 11.7893 132.862 10.7547 132.862 9.56ZM144.126 7.224L142.718 16.376C145.427 17.6773 146.782 19.5973 146.782 22.136C146.782 23.992 146.291 25.304 145.31 26.072C144.35 26.8187 143.187 27.192 141.822 27.192C140.457 27.192 139.39 26.84 138.622 26.136C137.854 25.432 137.47 24.4827 137.47 23.288C137.47 23.0107 137.481 22.7973 137.502 22.648L139.422 7.832C140.531 7.29867 141.47 7.032 142.238 7.032C143.006 7.032 143.635 7.096 144.126 7.224ZM142.75 24.28C143.262 24.28 143.699 24.0987 144.062 23.736C144.446 23.3733 144.638 22.7653 144.638 21.912C144.638 20.3973 143.913 19.2027 142.462 18.328C142.121 20.824 141.95 22.328 141.95 22.84C141.95 23.3307 142.025 23.6933 142.174 23.928C142.345 24.1627 142.537 24.28 142.75 24.28ZM167.362 27.16C165.4 27.16 164.098 26.4773 163.458 25.112C162.349 26.4987 160.92 27.192 159.17 27.192C157.442 27.192 155.981 26.6053 154.786 25.432C153.613 24.2587 153.026 22.712 153.026 20.792C153.026 17.9973 153.848 15.768 155.49 14.104C157.133 12.44 159.213 11.608 161.73 11.608C161.794 11.608 161.858 11.608 161.922 11.608C162.989 11.608 163.97 11.7893 164.866 12.152C165.442 11.7893 166.136 11.608 166.946 11.608C167.778 11.608 168.376 11.7147 168.738 11.928C168.546 13.5067 168.344 15.064 168.13 16.6C167.917 18.1147 167.768 19.192 167.682 19.832C167.49 21.2827 167.394 22.328 167.394 22.968C167.394 23.8213 167.736 24.248 168.418 24.248C168.952 24.248 169.517 23.896 170.114 23.192C170.712 22.4667 171.234 21.336 171.682 19.8C172.301 20.3547 172.728 20.9733 172.962 21.656C172.344 23.6827 171.512 25.112 170.466 25.944C169.421 26.7547 168.386 27.16 167.362 27.16ZM162.21 14.104C160.845 14.104 159.757 14.6267 158.946 15.672C158.157 16.696 157.688 18.232 157.538 20.28C157.517 20.472 157.506 20.6533 157.506 20.824C157.506 21.8693 157.752 22.7013 158.242 23.32C158.754 23.9387 159.405 24.248 160.194 24.248C161.538 24.248 162.552 23.2987 163.234 21.4L164.002 14.488C163.384 14.232 162.786 14.104 162.21 14.104ZM174.942 27.224C173.64 27.224 172.616 26.8613 171.87 26.136C171.123 25.3893 170.75 24.376 170.75 23.096C170.75 22.7547 171.326 17.688 172.478 7.896C172.776 5.37867 173.576 3.78933 174.878 3.128C175.475 2.808 176.19 2.648 177.022 2.648C179.838 2.648 181.246 3.94933 181.246 6.552C181.246 6.76533 181.235 6.98933 181.214 7.224C181 10.0827 179.208 12.9947 175.838 15.96C175.731 17.0053 175.614 18.0187 175.486 19C175.23 21.1973 175.102 22.4133 175.102 22.648C175.102 23.7573 175.582 24.312 176.542 24.312C177.587 24.312 178.558 23.7147 179.454 22.52C180.371 21.304 181.075 19.7573 181.566 17.88C181.758 17.944 182.024 18.1253 182.366 18.424C182.707 18.7013 182.942 18.9467 183.07 19.16C182.728 20.9307 181.96 22.6267 180.766 24.248C180.168 25.08 179.411 25.7627 178.494 26.296C177.448 26.9147 176.264 27.224 174.942 27.224ZM176.19 12.76C178.152 10.6053 179.134 8.67467 179.134 6.968C179.134 5.944 178.75 5.432 177.982 5.432C177.491 5.47467 177.16 5.79467 176.99 6.392C176.84 6.98933 176.691 7.96 176.542 9.304C176.414 10.648 176.328 11.48 176.286 11.8L176.19 12.76ZM186.387 19.832C187.71 19.5547 188.691 19.0213 189.331 18.232C189.992 17.4427 190.323 16.6853 190.323 15.96C190.323 15.2133 190.12 14.712 189.715 14.456C189.331 14.1787 188.904 14.04 188.435 14.04C187.432 14.04 186.547 14.6053 185.779 15.736C185.032 16.8453 184.659 18.1787 184.659 19.736C184.659 21.272 185.022 22.424 185.747 23.192C186.494 23.9387 187.411 24.312 188.499 24.312C190.099 24.312 191.635 23.7573 193.107 22.648C194.579 21.5387 195.774 20.088 196.691 18.296C197.16 18.744 197.587 19.2987 197.971 19.96C197.267 21.56 196.019 23.128 194.227 24.664C193.331 25.4107 192.264 26.0187 191.027 26.488C189.811 26.9573 188.552 27.192 187.251 27.192C185.118 27.192 183.432 26.5413 182.195 25.24C180.872 23.832 180.211 22.0293 180.211 19.832C180.211 17.6347 181.032 15.7147 182.675 14.072C184.339 12.4293 186.323 11.608 188.627 11.608C190.27 11.608 191.603 11.9707 192.627 12.696C193.651 13.4 194.174 14.36 194.195 15.576C194.195 17.2187 193.534 18.552 192.211 19.576C190.91 20.6 189.118 21.3147 186.835 21.72L186.387 19.832ZM202.573 4.728C202.573 4.856 202.285 7.14933 201.709 11.608H206.413V14.072H201.389L201.293 14.872C203.789 16.9627 205.037 19.2453 205.037 21.72C205.037 23.6613 204.536 25.0587 203.533 25.912C202.552 26.7653 201.368 27.192 199.981 27.192C198.594 27.192 197.581 26.8293 196.941 26.104C196.301 25.3573 195.981 24.4613 195.981 23.416C195.981 23.1813 196.002 22.9253 196.045 22.648L197.037 14.136L196.909 14.072H194.317C194.296 13.8587 194.285 13.5173 194.285 13.048C194.285 12.5573 194.381 12.0773 194.573 11.608H197.325L198.349 2.904C198.797 2.73333 199.394 2.648 200.141 2.648C201.762 2.648 202.573 3.34133 202.573 4.728ZM202.893 21.688C202.893 20.216 202.253 18.7653 200.973 17.336C200.589 20.5147 200.397 22.3493 200.397 22.84C200.397 23.8 200.706 24.28 201.325 24.28C201.773 24.28 202.146 24.0773 202.445 23.672C202.744 23.2453 202.893 22.584 202.893 21.688ZM213.573 4.728C213.573 4.856 213.285 7.14933 212.709 11.608H217.413V14.072H212.389L212.293 14.872C214.789 16.9627 216.037 19.2453 216.037 21.72C216.037 23.6613 215.536 25.0587 214.533 25.912C213.552 26.7653 212.368 27.192 210.981 27.192C209.594 27.192 208.581 26.8293 207.941 26.104C207.301 25.3573 206.981 24.4613 206.981 23.416C206.981 23.1813 207.002 22.9253 207.045 22.648L208.037 14.136L207.909 14.072H205.317C205.296 13.8587 205.285 13.5173 205.285 13.048C205.285 12.5573 205.381 12.0773 205.573 11.608H208.325L209.349 2.904C209.797 2.73333 210.394 2.648 211.141 2.648C212.762 2.648 213.573 3.34133 213.573 4.728ZM213.893 21.688C213.893 20.216 213.253 18.7653 211.973 17.336C211.589 20.5147 211.397 22.3493 211.397 22.84C211.397 23.8 211.706 24.28 212.325 24.28C212.773 24.28 213.146 24.0773 213.445 23.672C213.744 23.2453 213.893 22.584 213.893 21.688ZM223.293 19.832C224.616 19.5547 225.597 19.0213 226.237 18.232C226.898 17.4427 227.229 16.6853 227.229 15.96C227.229 15.2133 227.026 14.712 226.621 14.456C226.237 14.1787 225.81 14.04 225.341 14.04C224.338 14.04 223.453 14.6053 222.685 15.736C221.938 16.8453 221.565 18.1787 221.565 19.736C221.565 21.272 221.928 22.424 222.653 23.192C223.4 23.9387 224.317 24.312 225.405 24.312C227.005 24.312 228.541 23.7573 230.013 22.648C231.485 21.5387 232.68 20.088 233.597 18.296C234.066 18.744 234.493 19.2987 234.877 19.96C234.173 21.56 232.925 23.128 231.133 24.664C230.237 25.4107 229.17 26.0187 227.933 26.488C226.717 26.9573 225.458 27.192 224.157 27.192C222.024 27.192 220.338 26.5413 219.101 25.24C217.778 23.832 217.117 22.0293 217.117 19.832C217.117 17.6347 217.938 15.7147 219.581 14.072C221.245 12.4293 223.229 11.608 225.533 11.608C227.176 11.608 228.509 11.9707 229.533 12.696C230.557 13.4 231.08 14.36 231.101 15.576C231.101 17.2187 230.44 18.552 229.117 19.576C227.816 20.6 226.024 21.3147 223.741 21.72L223.293 19.832Z" fill="#8E1CFF"/>
<path d="M70.5269 17.173C71.8082 15.2717 73.0689 13.5253 74.3089 11.934C75.5695 10.322 76.7682 8.93733 77.9049 7.78C79.0415 6.62267 80.0852 5.72367 81.0359 5.083C81.9865 4.44233 82.8132 4.122 83.5159 4.122C83.7845 4.122 84.0739 4.22533 84.3839 4.432C84.7145 4.63867 85.0142 4.90733 85.2829 5.238C85.5722 5.56867 85.8099 5.93033 85.9959 6.323C86.1819 6.695 86.2749 7.05667 86.2749 7.408C84.9935 7.82133 83.7329 8.369 82.4929 9.051C81.2735 9.71233 80.0955 10.4873 78.9589 11.376C77.8429 12.244 76.7682 13.2153 75.7349 14.29C74.7222 15.3647 73.8025 16.5117 72.9759 17.731C73.3065 18.5783 73.7095 19.4877 74.1849 20.459C74.6809 21.4097 75.2182 22.3397 75.7969 23.249C76.3755 24.1377 76.9955 24.9643 77.6569 25.729C78.3182 26.4937 78.9899 27.1033 79.6719 27.558C79.5685 27.7853 79.3929 28.0023 79.1449 28.209C78.8969 28.4157 78.6282 28.6017 78.3389 28.767C78.0495 28.953 77.7395 29.0977 77.4089 29.201C77.0989 29.3043 76.8095 29.356 76.5409 29.356C76.0035 29.356 75.5075 29.0977 75.0529 28.581C74.5982 28.085 74.1332 27.3307 73.6579 26.318C73.2032 25.2847 72.7175 24.0137 72.2009 22.505C71.7049 20.9757 71.1469 19.1983 70.5269 17.173ZM65.8459 29.511C65.0605 29.325 64.4095 28.9943 63.8929 28.519C63.3762 28.0643 62.9009 27.4857 62.4669 26.783C62.6529 26.3903 62.8699 25.8737 63.1179 25.233C63.3865 24.5923 63.7069 23.807 64.0789 22.877C64.4509 21.9263 64.8952 20.8 65.4119 19.498C65.9285 18.1753 66.5279 16.6357 67.2099 14.879C67.6439 13.763 67.9952 12.8227 68.2639 12.058C68.5532 11.2933 68.7909 10.5493 68.9769 9.826C69.1835 9.082 69.3799 8.26567 69.5659 7.377C69.7519 6.48833 69.9689 5.362 70.2169 3.998C71.0849 4.16333 71.8702 4.54567 72.5729 5.145C73.2962 5.74433 73.9162 6.46766 74.4329 7.315C74.2055 7.60433 73.9369 8.04867 73.6269 8.648C73.3375 9.22667 73.0069 9.92933 72.6349 10.756C72.2629 11.5827 71.8495 12.5023 71.3949 13.515C70.9402 14.5277 70.4649 15.6023 69.9689 16.739C68.8529 19.219 67.9745 21.4923 67.3339 23.559C66.6932 25.605 66.1972 27.589 65.8459 29.511ZM90.2603 26.318C89.8676 25.9873 89.599 25.574 89.4543 25.078C89.3303 24.582 89.2683 24.1583 89.2683 23.807C89.2683 23.373 89.32 23.001 89.4233 22.691C89.3406 22.691 89.1546 22.8563 88.8653 23.187C88.576 23.5177 88.2556 23.9103 87.9043 24.365C87.5736 24.8197 87.243 25.264 86.9123 25.698C86.5816 26.132 86.3336 26.4523 86.1683 26.659C85.8996 26.9483 85.6413 27.1757 85.3933 27.341C85.166 27.5063 84.98 27.5993 84.8353 27.62C84.5046 27.5993 84.1533 27.527 83.7813 27.403C83.43 27.2997 83.089 27.1447 82.7583 26.938C82.4483 26.7313 82.1693 26.4833 81.9213 26.194C81.694 25.9047 81.539 25.574 81.4563 25.202C81.4563 24.6233 81.4666 24.148 81.4873 23.776C81.5286 23.404 81.601 23.001 81.7043 22.567C81.8903 21.7817 82.159 20.893 82.5103 19.901C82.8823 18.909 83.306 17.9377 83.7813 16.987C84.2566 16.0157 84.7836 15.1167 85.3623 14.29C85.9616 13.4427 86.592 12.7813 87.2533 12.306C87.4393 12.306 87.6563 12.3267 87.9043 12.368C88.1523 12.3887 88.4003 12.4403 88.6483 12.523C88.917 12.6057 89.165 12.709 89.3923 12.833C89.6403 12.9363 89.847 13.081 90.0123 13.267C89.8263 13.4737 89.351 14.166 88.5863 15.344C87.8423 16.522 87.0053 18.2167 86.0753 20.428C85.972 20.6553 85.848 20.986 85.7033 21.42C85.5586 21.854 85.414 22.3087 85.2693 22.784C85.1246 23.2593 85.0006 23.7243 84.8973 24.179C84.8146 24.6337 84.7733 24.9953 84.7733 25.264C84.7733 25.4293 84.794 25.5533 84.8353 25.636C84.8973 25.7187 84.949 25.7807 84.9903 25.822C85.3003 25.698 85.693 25.357 86.1683 24.799C86.6436 24.241 87.305 23.3833 88.1523 22.226C88.359 21.9367 88.5966 21.606 88.8653 21.234C89.1546 20.862 89.444 20.4693 89.7333 20.056C90.0226 19.622 90.2913 19.1777 90.5393 18.723C90.808 18.2683 91.025 17.8137 91.1903 17.359C91.273 17.111 91.3763 16.8217 91.5003 16.491C91.645 16.1397 91.8103 15.778 91.9963 15.406C92.203 15.034 92.4303 14.662 92.6783 14.29C92.947 13.8973 93.257 13.5357 93.6083 13.205C93.877 13.205 94.1663 13.236 94.4763 13.298C94.7863 13.36 95.0756 13.4427 95.3443 13.546C95.6336 13.6287 95.8816 13.732 96.0883 13.856C96.295 13.9593 96.45 14.073 96.5533 14.197C96.1813 15.1063 95.768 16.0053 95.3133 16.894C94.8586 17.7827 94.435 18.661 94.0423 19.529C93.6496 20.3763 93.319 21.2237 93.0503 22.071C92.7816 22.9183 92.6473 23.745 92.6473 24.551C92.6473 24.985 92.6783 25.3673 92.7403 25.698C92.823 26.008 92.9056 26.2767 92.9883 26.504C93.071 26.7107 93.1433 26.8863 93.2053 27.031C93.288 27.1757 93.3293 27.2997 93.3293 27.403C93.3293 27.4237 93.3086 27.4547 93.2673 27.496C93.2466 27.5167 93.226 27.527 93.2053 27.527C93.0606 27.527 92.8746 27.496 92.6473 27.434C92.42 27.372 92.1616 27.279 91.8723 27.155C91.6036 27.0517 91.3246 26.9277 91.0353 26.783C90.7666 26.6383 90.5083 26.4833 90.2603 26.318ZM96.4026 26.38C96.506 25.7807 96.6816 24.9953 96.9296 24.024C97.1983 23.032 97.5083 21.9883 97.8596 20.893C98.211 19.777 98.583 18.661 98.9756 17.545C99.3683 16.429 99.7506 15.4267 100.123 14.538C100.391 13.8973 100.629 13.4013 100.836 13.05C101.042 12.678 101.27 12.368 101.518 12.12C101.807 12.1613 102.107 12.2337 102.417 12.337C102.727 12.4403 103.026 12.5643 103.316 12.709C103.605 12.8537 103.863 13.0087 104.091 13.174C104.318 13.3187 104.494 13.4633 104.618 13.608C104.06 14.2693 103.564 15.0237 103.13 15.871C102.716 16.7183 102.293 17.8033 101.859 19.126C102.975 18.134 103.956 17.1833 104.804 16.274C105.672 15.3647 106.478 14.352 107.222 13.236C107.346 13.1327 107.563 13.081 107.873 13.081C108.162 13.081 108.441 13.1327 108.71 13.236C108.978 13.3187 109.164 13.4427 109.268 13.608C108.896 14.6 108.71 15.5817 108.71 16.553C108.71 17.4623 108.844 18.1443 109.113 18.599C109.092 18.723 108.947 18.9607 108.679 19.312C108.431 19.6633 108.152 19.994 107.842 20.304C107.284 20.0147 106.788 19.622 106.354 19.126C105.92 18.6093 105.599 18.0513 105.393 17.452C104.421 18.134 103.595 18.8057 102.913 19.467C102.231 20.1077 101.642 20.831 101.146 21.637C100.67 22.4223 100.257 23.3317 99.9056 24.365C99.575 25.3983 99.2546 26.628 98.9446 28.054C98.7586 28.0333 98.5313 27.961 98.2626 27.837C98.0146 27.7337 97.7563 27.5993 97.4876 27.434C97.2396 27.2687 97.0123 27.093 96.8056 26.907C96.599 26.721 96.4646 26.5453 96.4026 26.38ZM111.479 15.127C111.375 15.003 111.282 14.7447 111.2 14.352C111.117 13.9387 111.076 13.5873 111.076 13.298C111.613 13.3393 112.13 13.3807 112.626 13.422C113.122 13.4427 113.576 13.4633 113.99 13.484C114.3 12.864 114.63 12.2543 114.982 11.655C115.354 11.035 115.705 10.477 116.036 9.981C116.387 9.46433 116.707 9.03033 116.997 8.679C117.307 8.32767 117.544 8.10033 117.71 7.997C117.916 7.997 118.175 8.03833 118.485 8.121C118.815 8.183 119.146 8.276 119.477 8.4C119.807 8.50333 120.107 8.617 120.376 8.741C120.644 8.865 120.83 8.989 120.934 9.113C120.314 9.89833 119.776 10.632 119.322 11.314C118.888 11.9753 118.412 12.74 117.896 13.608C118.309 13.608 118.722 13.5977 119.136 13.577C119.57 13.5563 120.004 13.5253 120.438 13.484C120.541 13.5873 120.624 13.7217 120.686 13.887C120.748 14.0317 120.779 14.1867 120.779 14.352C119.766 14.724 118.536 14.9307 117.09 14.972C116.573 15.964 116.108 16.956 115.695 17.948C115.302 18.9193 114.961 19.8597 114.672 20.769C114.403 21.6783 114.186 22.536 114.021 23.342C113.876 24.148 113.804 24.8713 113.804 25.512C113.804 26.4213 114.145 26.9277 114.827 27.031C115.447 26.9483 116.036 26.7933 116.594 26.566C117.152 26.3387 117.648 26.0493 118.082 25.698C118.206 25.884 118.278 26.039 118.299 26.163C118.175 26.349 117.958 26.566 117.648 26.814C117.358 27.062 117.038 27.2997 116.687 27.527C116.335 27.775 115.994 27.9817 115.664 28.147C115.333 28.3123 115.085 28.4053 114.92 28.426C114.403 28.4053 113.886 28.2917 113.37 28.085C112.853 27.8783 112.378 27.62 111.944 27.31C111.53 27 111.189 26.659 110.921 26.287C110.652 25.8943 110.518 25.512 110.518 25.14C110.518 24.644 110.58 24.024 110.704 23.28C110.848 22.5153 111.045 21.6887 111.293 20.8C111.541 19.9113 111.83 18.9813 112.161 18.01C112.491 17.0387 112.853 16.0777 113.246 15.127H111.479ZM120.579 24.923C120.579 24.737 120.589 24.5097 120.61 24.241C120.651 23.9517 120.713 23.5797 120.796 23.125C120.879 22.6497 120.982 22.0813 121.106 21.42C121.251 20.7587 121.426 19.963 121.633 19.033C121.674 18.8263 121.767 18.4957 121.912 18.041C122.057 17.5863 122.243 17.111 122.47 16.615C122.718 16.0983 123.007 15.6023 123.338 15.127C123.689 14.6517 124.103 14.3003 124.578 14.073C124.929 14.1557 125.394 14.3727 125.973 14.724C126.552 15.0547 127.048 15.5197 127.461 16.119C126.986 16.6563 126.583 17.1937 126.252 17.731C125.942 18.2683 125.653 18.8263 125.384 19.405C125.136 19.9837 124.898 20.583 124.671 21.203C124.464 21.823 124.227 22.474 123.958 23.156C123.731 23.7347 123.524 24.334 123.338 24.954C123.152 25.5533 123.049 26.0803 123.028 26.535C123.028 26.907 123.018 27.1653 122.997 27.31C122.997 27.4753 122.945 27.558 122.842 27.558C122.759 27.558 122.594 27.5063 122.346 27.403C122.098 27.2997 121.84 27.1447 121.571 26.938C121.323 26.7107 121.096 26.4317 120.889 26.101C120.682 25.7703 120.579 25.3777 120.579 24.923ZM126.5 11.469C126.5 11.345 126.531 11.159 126.593 10.911C126.49 10.8077 126.397 10.6527 126.314 10.446C126.252 10.2393 126.221 10.0533 126.221 9.888C126.221 9.702 126.242 9.454 126.283 9.144C126.345 8.81333 126.417 8.462 126.5 8.09C126.583 7.718 126.686 7.33567 126.81 6.943C126.934 6.52967 127.058 6.15767 127.182 5.827C127.43 5.827 127.73 5.89933 128.081 6.044C128.453 6.168 128.825 6.34367 129.197 6.571C129.569 6.77767 129.91 7.01533 130.22 7.284C130.53 7.532 130.768 7.76967 130.933 7.997C130.706 8.22433 130.406 8.54467 130.034 8.958C129.662 9.35067 129.3 9.77433 128.949 10.229C128.598 10.663 128.277 11.0763 127.988 11.469C127.699 11.8617 127.513 12.1407 127.43 12.306C127.182 12.2647 126.965 12.1613 126.779 11.996C126.593 11.81 126.5 11.6343 126.5 11.469Z" fill="#2BF2FF"/>
</g>
<defs>
<filter id="filter0_d_22_62" x="0.549988" y="0.855011" width="249.327" height="40.656" filterUnits="userSpaceOnUse" color-interpolation-filters="sRGB">
<feFlood flood-opacity="0" result="BackgroundImageFix"/>
<feColorMatrix in="SourceAlpha" type="matrix" values="0 0 0 0 0 0 0 0 0 0 0 0 0 0 0 0 0 0 127 0" result="hardAlpha"/>
<feOffset dx="11" dy="8"/>
<feGaussianBlur stdDeviation="2"/>
<feComposite in2="hardAlpha" operator="out"/>
<feColorMatrix type="matrix" values="0 0 0 0 0 0 0 0 0 0 0 0 0 0 0 0 0 0 0.25 0"/>
<feBlend mode="normal" in2="BackgroundImageFix" result="effect1_dropShadow_22_62"/>
<feBlend mode="normal" in="SourceGraphic" in2="effect1_dropShadow_22_62" result="shape"/>
</filter>
</defs>
</svg>
